<svg width="20" height="20" viewBox="0 0 33 29" fill="none" xmlns="http://www.w3.org/2000/svg">
<path fill-rule="evenodd" clip-rule="evenodd" d="M33 14.5C33 15.0493 32.7827 15.5761 32.396 15.9645C32.0092 16.3529 31.4847 16.5711 30.9377 16.5711L7.04427 16.5711L15.8997 25.46C16.0914 25.6526 16.2435 25.8812 16.3473 26.1328C16.451 26.3844 16.5044 26.654 16.5044 26.9263C16.5044 27.1986 16.451 27.4683 16.3473 27.7199C16.2435 27.9715 16.0914 28.2001 15.8997 28.3926C15.7079 28.5852 15.4803 28.7379 15.2298 28.8422C14.9792 28.9464 14.7107 29 14.4396 29C14.1684 29 13.8999 28.9464 13.6494 28.8422C13.3989 28.7379 13.1712 28.5852 12.9795 28.3926L0.605867 15.9663C0.413815 15.7739 0.261444 15.5454 0.157479 15.2938C0.053514 15.0422 -1.307e-06 14.7724 -1.29509e-06 14.5C-1.28318e-06 14.2276 0.053514 13.9578 0.157479 13.7062C0.261444 13.4546 0.413815 13.2261 0.605867 13.0337L12.9795 0.607364C13.1712 0.414806 13.3989 0.26206 13.6494 0.157848C13.8999 0.0536364 14.1684 -8.23155e-07 14.4396 -8.11302e-07C14.7107 -7.99449e-07 14.9792 0.0536365 15.2298 0.157848C15.4803 0.26206 15.7079 0.414806 15.8997 0.607364C16.2869 0.996253 16.5044 1.5237 16.5044 2.07367C16.5044 2.34599 16.451 2.61564 16.3473 2.86723C16.2435 3.11882 16.0914 3.34742 15.8997 3.53998L7.04427 12.4289L30.9377 12.4289C31.4847 12.4289 32.0092 12.6471 32.396 13.0355C32.7827 13.4239 33 13.9507 33 14.5V14.5Z" fill="white"/>
</svg>
