<svg width="221" height="224" viewBox="0 0 221 224" fill="none" xmlns="http://www.w3.org/2000/svg">
<rect x="19.0642" y="1.78491" width="171.351" height="210.619" rx="33.9132" stroke="#F4F4F4" stroke-width="3.56981" stroke-dasharray="17.85 17.85"/>
<path d="M2.84016 41.4816C1.72344 41.5699 0.889727 42.5467 0.978006 43.6634C1.06628 44.7802 2.04313 45.6139 3.15984 45.5256L2.84016 41.4816ZM115.174 85.62L113.16 85.3762L115.174 85.62ZM85.9825 188.71L84.0732 189.394L85.9825 188.71ZM218.384 218.48C219.484 218.268 220.204 217.204 219.992 216.105C219.78 215.005 218.716 214.285 217.616 214.496L218.384 218.48ZM7.20285 45.2764C8.32155 45.2184 9.18139 44.2645 9.12336 43.1458C9.06533 42.0271 8.11141 41.1672 6.99271 41.2253L7.20285 45.2764ZM15.4001 40.9097C14.2803 40.9369 13.3945 41.8668 13.4217 42.9867C13.4489 44.1066 14.3789 44.9923 15.4987 44.9651L15.4001 40.9097ZM23.8016 44.8662C24.9218 44.8667 25.8303 43.959 25.8308 42.8388C25.8313 41.7186 24.9236 40.8101 23.8034 40.8096L23.8016 44.8662ZM32.2075 40.9191C31.0877 40.8902 30.1564 41.7745 30.1274 42.8943C30.0984 44.0141 30.9828 44.9454 32.1026 44.9744L32.2075 40.9191ZM40.4047 45.3019C41.5233 45.3618 42.4786 44.5035 42.5385 43.3849C42.5984 42.2663 41.7401 41.3109 40.6215 41.2511L40.4047 45.3019ZM49.0004 41.8265C47.8842 41.7321 46.9028 42.5605 46.8084 43.6767C46.7141 44.7929 47.5425 45.7743 48.6587 45.8687L49.0004 41.8265ZM56.8945 46.7094C58.0066 46.8436 59.017 46.0509 59.1512 44.9387C59.2854 43.8266 58.4926 42.8163 57.3805 42.6821L56.8945 46.7094ZM65.7293 43.8645C64.6239 43.6831 63.5807 44.4322 63.3994 45.5376C63.218 46.6431 63.9671 47.6862 65.0726 47.8676L65.7293 43.8645ZM73.1702 49.4059C74.2647 49.6447 75.3455 48.951 75.5843 47.8565C75.823 46.7621 75.1294 45.6813 74.0349 45.4425L73.1702 49.4059ZM82.2536 47.5106C81.1773 47.1999 80.053 47.8205 79.7423 48.8968C79.4316 49.973 80.0522 51.0974 81.1284 51.4081L82.2536 47.5106ZM88.8822 54.0008C89.9271 54.4047 91.1015 53.8851 91.5054 52.8402C91.9093 51.7953 91.3897 50.6209 90.3448 50.217L88.8822 54.0008ZM98.158 53.7636C97.1697 53.2363 95.941 53.6099 95.4137 54.5982C94.8863 55.5865 95.2599 56.8152 96.2482 57.3426L98.158 53.7636ZM102.951 61.6561C103.832 62.3473 105.107 62.1931 105.798 61.3116C106.49 60.4301 106.335 59.1552 105.454 58.4639L102.951 61.6561ZM111.705 64.7045C111.024 63.8149 109.751 63.6455 108.861 64.3263C107.972 65.007 107.802 66.2801 108.483 67.1697L111.705 64.7045ZM112.119 73.9003C112.481 74.9603 113.634 75.5259 114.694 75.1636C115.754 74.8013 116.32 73.6483 115.957 72.5883L112.119 73.9003ZM117.438 81.4141C117.425 80.2939 116.506 79.3964 115.386 79.4094C114.266 79.4224 113.368 80.3409 113.381 81.461L117.438 81.4141ZM112.623 89.229C112.447 90.3354 113.202 91.3744 114.309 91.5496C115.415 91.7249 116.454 90.97 116.629 89.8636L112.623 89.229ZM115.066 97.7709C115.325 96.6813 114.653 95.5873 113.563 95.3274C112.474 95.0675 111.38 95.7402 111.12 96.8298L115.066 97.7709ZM109.028 104.274C108.682 105.339 109.265 106.484 110.331 106.83C111.396 107.175 112.54 106.592 112.886 105.527L109.028 104.274ZM110.1 113.082C110.528 112.047 110.036 110.861 109 110.433C107.965 110.005 106.779 110.497 106.351 111.533L110.1 113.082ZM103.134 118.587C102.635 119.59 103.043 120.808 104.046 121.307C105.049 121.806 106.266 121.398 106.766 120.395L103.134 118.587ZM102.996 127.454C103.549 126.479 103.207 125.241 102.232 124.689C101.258 124.137 100.02 124.479 99.4675 125.453L102.996 127.454ZM95.4851 132.206C94.9044 133.164 95.2101 134.411 96.1681 134.992C97.126 135.573 98.3733 135.267 98.954 134.309L95.4851 132.206ZM94.8602 141.053C95.4356 140.092 95.123 138.846 94.1619 138.271C93.2008 137.695 91.9552 138.008 91.3797 138.969L94.8602 141.053ZM87.4183 145.921C86.8933 146.911 87.2699 148.139 88.2594 148.664C89.2489 149.189 90.4767 148.812 91.0018 147.823L87.4183 145.921ZM87.7409 154.768C88.1564 153.728 87.6498 152.548 86.6095 152.132C85.5692 151.717 84.3891 152.223 83.9736 153.264L87.7409 154.768ZM81.5256 161.108C81.2837 162.202 81.9742 163.285 83.068 163.527C84.1617 163.769 85.2445 163.078 85.4865 161.984L81.5256 161.108ZM84.5616 169.423C84.5937 168.304 83.7119 167.37 82.5922 167.338C81.4725 167.306 80.5387 168.187 80.5066 169.307L84.5616 169.423ZM81.0149 177.54C81.1793 178.649 82.2108 179.414 83.3189 179.249C84.427 179.085 85.192 178.053 85.0276 176.945L81.0149 177.54ZM86.6964 184.379C86.3784 183.305 85.2499 182.692 84.1758 183.009C83.1016 183.327 82.4886 184.456 82.8066 185.53L86.6964 184.379ZM85.7252 193.3C86.2189 194.306 87.4343 194.721 88.4398 194.227C89.4453 193.733 89.8602 192.518 89.3664 191.512L85.7252 193.3ZM93.4248 197.853C92.7201 196.982 91.4429 196.848 90.5721 197.552C89.7013 198.257 89.5667 199.534 90.2714 200.405L93.4248 197.853ZM96.194 206.352C97.058 207.065 98.3364 206.943 99.0494 206.079C99.7624 205.215 99.6399 203.936 98.7759 203.223L96.194 206.352ZM105.081 207.583C104.113 207.02 102.871 207.349 102.308 208.317C101.745 209.285 102.073 210.527 103.042 211.09L105.081 207.583ZM110.432 214.756C111.464 215.192 112.654 214.708 113.09 213.676C113.526 212.644 113.042 211.454 112.01 211.019L110.432 214.756ZM119.355 213.681C118.284 213.349 117.148 213.948 116.817 215.019C116.486 216.089 117.085 217.225 118.155 217.556L119.355 213.681ZM126.036 219.649C127.129 219.895 128.215 219.209 128.461 218.117C128.708 217.024 128.022 215.938 126.929 215.692L126.036 219.649ZM134.668 217.174C133.562 216.997 132.522 217.75 132.345 218.856C132.168 219.962 132.921 221.002 134.027 221.179L134.668 217.174ZM142.07 222.247C143.184 222.366 144.184 221.56 144.303 220.446C144.422 219.332 143.616 218.332 142.502 218.213L142.07 222.247ZM150.391 218.879C149.273 218.808 148.31 219.658 148.239 220.776C148.169 221.894 149.018 222.857 150.136 222.927L150.391 218.879ZM158.208 223.28C159.328 223.309 160.259 222.424 160.287 221.304C160.316 220.184 159.431 219.253 158.311 219.225L158.208 223.28ZM166.258 219.293C165.138 219.301 164.236 220.216 164.245 221.336C164.253 222.457 165.168 223.358 166.288 223.349L166.258 219.293ZM174.351 223.169C175.47 223.128 176.344 222.187 176.303 221.067C176.262 219.948 175.321 219.074 174.202 219.115L174.351 223.169ZM182.148 218.716C181.03 218.786 180.181 219.75 180.252 220.868C180.323 221.986 181.287 222.835 182.405 222.764L182.148 218.716ZM190.431 222.155C191.547 222.057 192.372 221.072 192.273 219.956C192.175 218.84 191.191 218.016 190.075 218.114L190.431 222.155ZM198.014 217.319C196.901 217.444 196.099 218.447 196.224 219.561C196.349 220.674 197.352 221.475 198.466 221.35L198.014 217.319ZM206.462 220.359C207.572 220.208 208.35 219.186 208.199 218.076C208.047 216.966 207.025 216.188 205.915 216.34L206.462 220.359ZM213.796 215.162C212.69 215.343 211.941 216.387 212.122 217.492C212.304 218.597 213.347 219.347 214.452 219.165L213.796 215.162ZM3 43.5036C3.15984 45.5256 3.1598 45.5256 3.15977 45.5256C3.15976 45.5256 3.15973 45.5256 3.15972 45.5256C3.1597 45.5256 3.15971 45.5256 3.15974 45.5256C3.15979 45.5256 3.15993 45.5256 3.16017 45.5256C3.16064 45.5255 3.16146 45.5255 3.16265 45.5254C3.16502 45.5252 3.16882 45.5249 3.17405 45.5245C3.1845 45.5237 3.20063 45.5224 3.22238 45.5208C3.26586 45.5175 3.33176 45.5125 3.41941 45.5061C3.59471 45.4934 3.85701 45.4748 4.20102 45.452C4.88905 45.4064 5.90378 45.3438 7.20285 45.2764L6.99271 41.2253C5.67303 41.2937 4.63887 41.3575 3.9327 41.4043C3.5796 41.4277 3.30848 41.4469 3.12463 41.4603C3.0327 41.467 2.96259 41.4722 2.91496 41.4758C2.89114 41.4776 2.87295 41.479 2.86045 41.48C2.8542 41.4805 2.84938 41.4809 2.846 41.4811C2.8443 41.4813 2.84297 41.4814 2.842 41.4815C2.84151 41.4815 2.84111 41.4815 2.84081 41.4815C2.84065 41.4816 2.84052 41.4816 2.84041 41.4816C2.84036 41.4816 2.8403 41.4816 2.84027 41.4816C2.84021 41.4816 2.84016 41.4816 3 43.5036ZM15.4987 44.9651C17.9878 44.9046 20.7788 44.8649 23.8016 44.8662L23.8034 40.8096C20.7442 40.8083 17.9196 40.8484 15.4001 40.9097L15.4987 44.9651ZM32.1026 44.9744C34.7747 45.0435 37.5537 45.1493 40.4047 45.3019L40.6215 41.2511C37.7302 41.0964 34.9138 40.9891 32.2075 40.9191L32.1026 44.9744ZM48.6587 45.8687C51.381 46.0988 54.1353 46.3765 56.8945 46.7094L57.3805 42.6821C54.5692 42.3428 51.7665 42.0603 49.0004 41.8265L48.6587 45.8687ZM65.0726 47.8676C67.8046 48.3158 70.5126 48.8261 73.1702 49.4059L74.0349 45.4425C71.3014 44.8462 68.5236 44.3229 65.7293 43.8645L65.0726 47.8676ZM81.1284 51.4081C83.8158 52.1839 86.4106 53.0454 88.8822 54.0008L90.3448 50.217C87.7488 49.2136 85.0401 48.315 82.2536 47.5106L81.1284 51.4081ZM96.2482 57.3426C98.7046 58.6533 100.951 60.0882 102.951 61.6561L105.454 58.4639C103.241 56.7287 100.79 55.1682 98.158 53.7636L96.2482 57.3426ZM108.483 67.1697C110.059 69.2292 111.287 71.4658 112.119 73.9003L115.957 72.5883C114.973 69.7096 113.528 67.0873 111.705 64.7045L108.483 67.1697ZM113.381 81.461C113.396 82.7151 113.325 84.0194 113.16 85.3762L117.188 85.8638C117.372 84.3379 117.454 82.8549 117.438 81.4141L113.381 81.461ZM113.16 85.3762C113.001 86.6881 112.822 87.9719 112.623 89.229L116.629 89.8636C116.836 88.5575 117.023 87.2246 117.188 85.8638L113.16 85.3762ZM111.12 96.8298C110.5 99.4266 109.798 101.903 109.028 104.274L112.886 105.527C113.688 103.056 114.42 100.476 115.066 97.7709L111.12 96.8298ZM106.351 111.533C105.335 113.99 104.255 116.334 103.134 118.587L106.766 120.395C107.924 118.067 109.044 115.636 110.1 113.082L106.351 111.533ZM99.4675 125.453C98.1496 127.778 96.8123 130.017 95.4851 132.206L98.954 134.309C100.289 132.106 101.65 129.829 102.996 127.454L99.4675 125.453ZM91.3797 138.969C89.9879 141.294 88.6494 143.601 87.4183 145.921L91.0018 147.823C92.1863 145.59 93.4849 143.35 94.8602 141.053L91.3797 138.969ZM83.9736 153.264C82.9622 155.796 82.1255 158.397 81.5256 161.108L85.4865 161.984C86.0323 159.517 86.7987 157.128 87.7409 154.768L83.9736 153.264ZM80.5066 169.307C80.4313 171.934 80.5889 174.668 81.0149 177.54L85.0276 176.945C84.6355 174.301 84.4933 171.805 84.5616 169.423L80.5066 169.307ZM82.8066 185.53C83.18 186.791 83.6015 188.079 84.0732 189.394L87.8917 188.025C87.4447 186.778 87.0471 185.564 86.6964 184.379L82.8066 185.53ZM84.0732 189.394C84.5574 190.745 85.1093 192.046 85.7252 193.3L89.3664 191.512C88.8176 190.395 88.3248 189.233 87.8917 188.025L84.0732 189.394ZM90.2714 200.405C92.0307 202.579 94.0174 204.556 96.194 206.352L98.7759 203.223C96.7923 201.586 95.0005 199.8 93.4248 197.853L90.2714 200.405ZM103.042 211.09C105.379 212.449 107.852 213.667 110.432 214.756L112.01 211.019C109.571 209.989 107.254 208.847 105.081 207.583L103.042 211.09ZM118.155 217.556C120.715 218.348 123.349 219.043 126.036 219.649L126.929 215.692C124.335 215.106 121.804 214.439 119.355 213.681L118.155 217.556ZM134.027 221.179C136.681 221.604 139.368 221.957 142.07 222.247L142.502 218.213C139.864 217.93 137.247 217.586 134.668 217.174L134.027 221.179ZM150.136 222.927C152.833 223.097 155.53 223.212 158.208 223.28L158.311 219.225C155.679 219.158 153.034 219.045 150.391 218.879L150.136 222.927ZM166.288 223.349C169.019 223.329 171.713 223.266 174.351 223.169L174.202 219.115C171.6 219.211 168.946 219.273 166.258 219.293L166.288 223.349ZM182.405 222.764C185.181 222.588 187.865 222.381 190.431 222.155L190.075 218.114C187.54 218.337 184.889 218.542 182.148 218.716L182.405 222.764ZM198.466 221.35C201.393 221.022 204.077 220.684 206.462 220.359L205.915 216.34C203.559 216.66 200.907 216.995 198.014 217.319L198.466 221.35ZM214.452 219.165C215.708 218.959 216.686 218.789 217.353 218.669C217.687 218.61 217.942 218.563 218.116 218.53C218.202 218.514 218.268 218.502 218.313 218.493C218.335 218.489 218.353 218.486 218.364 218.484C218.37 218.482 218.375 218.482 218.378 218.481C218.38 218.481 218.381 218.48 218.382 218.48C218.382 218.48 218.383 218.48 218.383 218.48C218.383 218.48 218.383 218.48 218.383 218.48C218.383 218.48 218.384 218.48 218.384 218.48C218.384 218.48 218.384 218.48 218 216.488C217.616 214.496 217.616 214.496 217.616 214.496C217.616 214.496 217.616 214.496 217.616 214.496C217.616 214.496 217.616 214.496 217.616 214.496C217.616 214.496 217.616 214.496 217.616 214.497C217.616 214.497 217.615 214.497 217.614 214.497C217.612 214.497 217.608 214.498 217.603 214.499C217.594 214.501 217.579 214.504 217.558 214.508C217.518 214.515 217.456 214.527 217.374 214.542C217.209 214.573 216.962 214.618 216.638 214.676C215.99 214.792 215.03 214.96 213.796 215.162L214.452 219.165Z" fill="white"/>
<path d="M131.109 180.633L127.479 184.267M135.954 175.79L144.517 196.34L147.554 187.39L156.504 184.352L135.954 175.79ZM148.063 187.899L155.329 195.165L148.063 187.899ZM132.851 164.211L134.182 169.173L132.851 164.211ZM129.337 174.017L124.374 172.687L129.337 174.017ZM144.431 167.313L140.797 170.947L144.431 167.313Z" stroke="white" stroke-width="3.42501" stroke-linecap="round" stroke-linejoin="round"/>
</svg>
