<svg width="24" height="24" viewBox="0 0 34 34" fill="none" xmlns="http://www.w3.org/2000/svg">
<path d="M17 29.75C24.0416 29.75 29.75 24.0416 29.75 17C29.75 9.95837 24.0416 4.25 17 4.25C9.95837 4.25 4.25 9.95837 4.25 17C4.25 24.0416 9.95837 29.75 17 29.75Z" stroke="#3B5BA2" stroke-width="2.83333" stroke-linecap="round" stroke-linejoin="round"/>
<path d="M17 21.25C19.3472 21.25 21.25 19.3472 21.25 17C21.25 14.6528 19.3472 12.75 17 12.75C14.6528 12.75 12.75 14.6528 12.75 17C12.75 19.3472 14.6528 21.25 17 21.25Z" stroke="#3B5BA2" stroke-width="2.83333" stroke-linecap="round" stroke-linejoin="round"/>
<path d="M21.25 17H29.75M4.25 17H12.75H4.25Z" stroke="#3B5BA2" stroke-width="2.83333" stroke-linecap="round" stroke-linejoin="round"/>
</svg>
